<svg width="24" height="24" viewBox="0 0 24 24" fill="none" xmlns="http://www.w3.org/2000/svg">
<g clip-path="url(#clip0_4355_19753)">
<path fill-rule="evenodd" clip-rule="evenodd" d="M14 2H10V4C10 5.10457 9.10457 6 8 6C6.89543 6 6 5.10457 6 4V2.02714C5.91325 2.03193 5.82933 2.03756 5.74818 2.04419C5.18608 2.09012 4.66938 2.18868 4.18404 2.43597C3.43139 2.81947 2.81947 3.43139 2.43598 4.18404C2.18868 4.66937 2.09012 5.18608 2.0442 5.74817C1.99998 6.28936 1.99999 6.95371 2 7.75867V8H22V7.75868C22 6.95372 22 6.28936 21.9558 5.74817C21.9099 5.18608 21.8113 4.66937 21.564 4.18404C21.1805 3.43139 20.5686 2.81947 19.816 2.43597C19.3306 2.18868 18.8139 2.09012 18.2518 2.04419C18.1707 2.03756 18.0868 2.03193 18 2.02714V4C18 5.10457 17.1046 6 16 6C14.8954 6 14 5.10457 14 4V2ZM22 10H2V16.2413C1.99999 17.0463 1.99998 17.7106 2.0442 18.2518C2.09012 18.8139 2.18868 19.3306 2.43598 19.816C2.81947 20.5686 3.43139 21.1805 4.18404 21.564C4.66938 21.8113 5.18608 21.9099 5.74818 21.9558C6.28937 22 6.95372 22 7.75868 22H16.2413C17.0463 22 17.7106 22 18.2518 21.9558C18.8139 21.9099 19.3306 21.8113 19.816 21.564C20.5686 21.1805 21.1805 20.5686 21.564 19.816C21.8113 19.3306 21.9099 18.8139 21.9558 18.2518C22 17.7106 22 17.0463 22 16.2413V10Z" fill="black"/>
<path fill-rule="evenodd" clip-rule="evenodd" d="M8 1C8.55228 1 9 1.44772 9 2V4C9 4.55228 8.55228 5 8 5C7.44772 5 7 4.55228 7 4V2C7 1.44772 7.44772 1 8 1Z" fill="black"/>
<path fill-rule="evenodd" clip-rule="evenodd" d="M16 1C16.5523 1 17 1.44772 17 2V4C17 4.55228 16.5523 5 16 5C15.4477 5 15 4.55228 15 4V2C15 1.44772 15.4477 1 16 1Z" fill="black"/>
</g>
<defs>
<clipPath id="clip0_4355_19753">
<rect width="24" height="24" fill="white"/>
</clipPath>
</defs>
</svg>
