<svg width="24" height="24" viewBox="0 0 24 24" fill="none" xmlns="http://www.w3.org/2000/svg">
<path fill-rule="evenodd" clip-rule="evenodd" d="M4.64865 2C4.01427 2 3.5 2.5206 3.5 3.16279C3.5 3.80498 4.01427 4.32558 4.64865 4.32558H5.33784V6.53661C5.33784 8.01399 6.06721 9.39361 7.28151 10.2131L9.92924 12L7.28151 13.7869C6.06721 14.6064 5.33784 15.986 5.33784 17.4634V19.6744H4.64865C4.01427 19.6744 3.5 20.195 3.5 20.8372C3.5 21.4794 4.01427 22 4.64865 22H19.3514C19.9857 22 20.5 21.4794 20.5 20.8372C20.5 20.195 19.9857 19.6744 19.3514 19.6744H18.6622V17.4634C18.6622 15.986 17.9328 14.6064 16.7185 13.7869L14.0708 12L16.7185 10.2131C17.9328 9.39361 18.6622 8.01399 18.6622 6.53661V4.32558H19.3514C19.9857 4.32558 20.5 3.80498 20.5 3.16279C20.5 2.5206 19.9857 2 19.3514 2H4.64865ZM16.3649 19.6744H7.63514L7.64132 17.4634H16.3649V19.6744ZM16.3649 5.95349H7.63514V6.53661C7.63514 7.23642 7.98063 7.88993 8.55582 8.27811L12 10.6025L15.4442 8.27811C16.0194 7.88993 16.3649 7.23642 16.3649 6.53661V5.95349Z" fill="black"/>
</svg>
